<svg id="Layer_1" data-name="Layer 1" xmlns="http://www.w3.org/2000/svg" viewBox="0 0 109.9 40"><defs><style>.cls-1{fill:#b51e23;}.cls-2{fill:#a41e23;}.cls-3{fill:#e21d3e;}.cls-4{fill:#fff;}.cls-5{fill:#0b293a;}</style></defs><path class="cls-1" d="M24.18,10.49a1.63,1.63,0,0,1-.7-.16l-.83-1.21V.26l-.06-.34H1.4A1.57,1.57,0,0,0-.13,1.53V38.46A1.57,1.57,0,0,0,1.4,40.07H30.59l-6.13-7-3.58,6.22-4-20.16,17.33,8V10.49Z"/><polygon class="cls-1" points="34.22 36.42 34.22 27.66 28.35 29.75 34.22 36.42"/><polygon class="cls-2" points="23.5 10.35 34.22 20.63 34.22 10.49 23.5 10.35"/><path class="cls-3" d="M22.59-.08h0l-.12,8.94a1.66,1.66,0,0,0,1.71,1.63h10Z"/><path class="cls-4" d="M34.22,36.42l-5.87-6.67,5.87-2.09v-.59l-17.33-8,4,20.16L24.46,33l6.13,7h2.14a1.52,1.52,0,0,0,1.51-1.51l0-2.12"/><path class="cls-5" d="M43.14,4.45h9.11v2H45.52v4h5.93v2H45.52v6H43.14Z"/><path class="cls-5" d="M58.41,18.57A4.89,4.89,0,0,1,55.92,18a4.15,4.15,0,0,1-1.64-1.75,6,6,0,0,1-.58-2.76,6.16,6.16,0,0,1,.56-2.73,4.25,4.25,0,0,1,1.62-1.83,5.19,5.19,0,0,1,5,0,4.15,4.15,0,0,1,1.62,1.79,6.19,6.19,0,0,1,.58,2.8,6.24,6.24,0,0,1-.55,2.67A4.21,4.21,0,0,1,61,17.91,4.64,4.64,0,0,1,58.41,18.57Zm0-1.79a2,2,0,0,0,1.33-.44,2.6,2.6,0,0,0,.78-1.21,5.63,5.63,0,0,0,.25-1.76,5.94,5.94,0,0,0-.22-1.68,2.6,2.6,0,0,0-.75-1.24A2,2,0,0,0,58.42,10a2.14,2.14,0,0,0-1.36.42,2.68,2.68,0,0,0-.8,1.2A5.57,5.57,0,0,0,56,13.37a6.06,6.06,0,0,0,.23,1.69A2.79,2.79,0,0,0,57,16.31,2.08,2.08,0,0,0,58.42,16.78Z"/><path class="cls-5" d="M65.35,18.37v-10H67.6v2.16a3.65,3.65,0,0,1,.69-1.26,3.1,3.1,0,0,1,1.06-.81,3.18,3.18,0,0,1,1.32-.28l.33,0a.57.57,0,0,1,.24.07v2.24a.9.9,0,0,0-.27-.06,1.57,1.57,0,0,0-.29,0,4.77,4.77,0,0,0-1.28,0,2.59,2.59,0,0,0-.94.39,1.84,1.84,0,0,0-.57.7,2.27,2.27,0,0,0-.19,1v5.79Z"/><path class="cls-5" d="M73.21,18.37v-10H75.5V9.84A4,4,0,0,1,76.68,8.7a3.46,3.46,0,0,1,1.9-.48,3.14,3.14,0,0,1,1.07.19,3.34,3.34,0,0,1,1,.54,2.53,2.53,0,0,1,.74.88,3.77,3.77,0,0,1,1.26-1.15,3.39,3.39,0,0,1,1.77-.46,3.68,3.68,0,0,1,1.11.18,2.84,2.84,0,0,1,1,.57,2.91,2.91,0,0,1,.78,1.11,4.38,4.38,0,0,1,.3,1.74v6.55H85.34V12.1a2.15,2.15,0,0,0-.26-1.16,1.38,1.38,0,0,0-.67-.6,2.12,2.12,0,0,0-.87-.18,2.5,2.5,0,0,0-.86.16,1.77,1.77,0,0,0-.76.54,1.52,1.52,0,0,0-.31,1v6.5H79.27V11.73a1.37,1.37,0,0,0-.27-.87,1.66,1.66,0,0,0-.68-.52,2.08,2.08,0,0,0-.84-.18,2.35,2.35,0,0,0-.88.18,1.67,1.67,0,0,0-.74.57,1.49,1.49,0,0,0-.3,1v6.5Z"/><path class="cls-5" d="M94,18.57a5.87,5.87,0,0,1-2-.34,3.73,3.73,0,0,1-1.56-1,3.41,3.41,0,0,1-.79-1.84h2.06a2,2,0,0,0,.47.89,2,2,0,0,0,.82.51,2.85,2.85,0,0,0,1,.16,2.92,2.92,0,0,0,1.45-.31,1,1,0,0,0,.55-1,1,1,0,0,0-.3-.75,2.18,2.18,0,0,0-1-.43L92.8,14a4.82,4.82,0,0,1-2-.92A2.34,2.34,0,0,1,90,11.29a2.73,2.73,0,0,1,.45-1.57,3,3,0,0,1,1.34-1.1A5.58,5.58,0,0,1,94,8.22,4.57,4.57,0,0,1,96.79,9a2.64,2.64,0,0,1,1.08,2.21h-2a1.47,1.47,0,0,0-.61-1A2.17,2.17,0,0,0,94,9.84a2.66,2.66,0,0,0-1.36.32,1.05,1.05,0,0,0-.53,1,.81.81,0,0,0,.41.71,3.89,3.89,0,0,0,1.21.45l1.79.43a3.89,3.89,0,0,1,1.26.52,2.83,2.83,0,0,1,.77.72,2.28,2.28,0,0,1,.39.8,2.62,2.62,0,0,1,.11.75,2.73,2.73,0,0,1-.49,1.65,3.13,3.13,0,0,1-1.4,1A5.81,5.81,0,0,1,94,18.57Z"/><path class="cls-5" d="M48.15,35.66a7.66,7.66,0,0,1-2-.25,5.9,5.9,0,0,1-1.75-.77,4.37,4.37,0,0,1-1.31-1.26,3.8,3.8,0,0,1-.63-1.76h2.42a2.57,2.57,0,0,0,.61,1.18,2.83,2.83,0,0,0,1.13.73,4.24,4.24,0,0,0,1.49.25,5,5,0,0,0,1.56-.23,2.67,2.67,0,0,0,1.11-.67,1.57,1.57,0,0,0,.41-1.09,1.53,1.53,0,0,0-.3-1,2.12,2.12,0,0,0-.83-.65,5.56,5.56,0,0,0-1.25-.41l-2.56-.56A4.64,4.64,0,0,1,43.83,28a3.36,3.36,0,0,1-.93-2.44,3.66,3.66,0,0,1,.67-2.2,4.41,4.41,0,0,1,1.86-1.46,6.56,6.56,0,0,1,2.65-.51,6.93,6.93,0,0,1,2.93.56,4.3,4.3,0,0,1,1.8,1.51,3.89,3.89,0,0,1,.62,2.07H51.06a2.38,2.38,0,0,0-.5-1.32,2.22,2.22,0,0,0-1-.7,4.53,4.53,0,0,0-1.41-.21,4.21,4.21,0,0,0-1.08.13,2.67,2.67,0,0,0-.87.4,1.86,1.86,0,0,0-.59.63,1.78,1.78,0,0,0-.2.85,1.44,1.44,0,0,0,.44,1.08,3.81,3.81,0,0,0,1.69.71l2.5.56a5.28,5.28,0,0,1,1.88.69,3.51,3.51,0,0,1,1.59,2.26,6.3,6.3,0,0,1,.12,1.18,3.17,3.17,0,0,1-.67,2A4.48,4.48,0,0,1,51,35.15,7.41,7.41,0,0,1,48.15,35.66Z"/><path class="cls-5" d="M57.75,31a3.93,3.93,0,0,0,.27,1.5,2.3,2.3,0,0,0,.83,1,2.44,2.44,0,0,0,1.36.37,2.8,2.8,0,0,0,1.44-.37,1.83,1.83,0,0,0,.81-1.14h2.15a3.43,3.43,0,0,1-.83,1.77,4.27,4.27,0,0,1-1.58,1.09,5.14,5.14,0,0,1-1.93.38,5.08,5.08,0,0,1-2.54-.61A4.3,4.3,0,0,1,56,33.3a5.62,5.62,0,0,1-.61-2.71A6.39,6.39,0,0,1,56,27.87,4.45,4.45,0,0,1,57.58,26a4.63,4.63,0,0,1,2.54-.68,4.68,4.68,0,0,1,2.48.62,3.93,3.93,0,0,1,1.52,1.75,6.14,6.14,0,0,1,.52,2.63V31Zm0-1.46h4.67a3.21,3.21,0,0,0-.25-1.3,2.11,2.11,0,0,0-.76-.93,2.39,2.39,0,0,0-1.3-.34,2.2,2.2,0,0,0-1.3.38,2.37,2.37,0,0,0-.8,1A2.88,2.88,0,0,0,57.75,29.57Z"/><path class="cls-5" d="M66.8,35.47v-10h2.26v2.16a3.61,3.61,0,0,1,.69-1.27,2.91,2.91,0,0,1,1-.8,3,3,0,0,1,1.32-.28,1.88,1.88,0,0,1,.34,0,.59.59,0,0,1,.24.06v2.25a1,1,0,0,0-.28-.07l-.29,0a4.39,4.39,0,0,0-1.28.06,2.46,2.46,0,0,0-.93.39,1.66,1.66,0,0,0-.57.69,2.32,2.32,0,0,0-.2,1v5.79Z"/><path class="cls-5" d="M83.12,25.51l-3.67,10H77.6l-3.68-10h2.15l2.39,7h.12l2.38-7Z"/><path class="cls-5" d="M87.23,21.55v2.22H84.91V21.55Zm0,4v10H85v-10Z"/><path class="cls-5" d="M94.15,25.32a4.33,4.33,0,0,1,2,.46,3.66,3.66,0,0,1,1.42,1.28,4.22,4.22,0,0,1,.65,1.87h-2a2.13,2.13,0,0,0-.32-.87,2,2,0,0,0-.71-.67,2.09,2.09,0,0,0-1.07-.25,2.23,2.23,0,0,0-1.81.83,3.85,3.85,0,0,0-.7,2.54A4.27,4.27,0,0,0,92.31,33a2.22,2.22,0,0,0,1.9.94,2,2,0,0,0,1.06-.28A2.14,2.14,0,0,0,96,33a2.4,2.4,0,0,0,.33-.83h1.95a3.67,3.67,0,0,1-.63,1.8,3.82,3.82,0,0,1-1.43,1.24,4.4,4.4,0,0,1-2,.45,4.86,4.86,0,0,1-2.43-.6,4.21,4.21,0,0,1-1.67-1.75,6,6,0,0,1-.61-2.78A6.12,6.12,0,0,1,90,27.81,4.32,4.32,0,0,1,91.64,26,4.65,4.65,0,0,1,94.15,25.32Z"/><path class="cls-5" d="M102.26,31a3.93,3.93,0,0,0,.27,1.5,2.3,2.3,0,0,0,.83,1,2.44,2.44,0,0,0,1.36.37,2.8,2.8,0,0,0,1.44-.37,1.83,1.83,0,0,0,.81-1.14h2.15a3.43,3.43,0,0,1-.83,1.77,4.27,4.27,0,0,1-1.58,1.09,5.16,5.16,0,0,1-1.94.38,5.07,5.07,0,0,1-2.53-.61,4.3,4.3,0,0,1-1.71-1.75,5.62,5.62,0,0,1-.61-2.71,6.39,6.39,0,0,1,.56-2.72A4.45,4.45,0,0,1,102.09,26a4.63,4.63,0,0,1,2.54-.68,4.68,4.68,0,0,1,2.48.62,3.93,3.93,0,0,1,1.52,1.75,6.14,6.14,0,0,1,.52,2.63V31Zm0-1.46h4.67a3.21,3.21,0,0,0-.25-1.3,2,2,0,0,0-.76-.93,2.39,2.39,0,0,0-1.3-.34,2.2,2.2,0,0,0-1.3.38,2.37,2.37,0,0,0-.8,1A2.88,2.88,0,0,0,102.26,29.57Z"/></svg>