<?xml version="1.0" encoding="utf-8"?>
<!-- Generator: Adobe Illustrator 24.3.0, SVG Export Plug-In . SVG Version: 6.00 Build 0)  -->
<svg version="1.1" id="Layer_1" xmlns="http://www.w3.org/2000/svg" xmlns:xlink="http://www.w3.org/1999/xlink" x="0px" y="0px"
	 viewBox="0 0 155.03 20" style="enable-background:new 0 0 155.03 20;" xml:space="preserve">
<style type="text/css">
	.st0{fill:#B51E23;}
	.st1{fill:#E21D3E;}
	.st2{fill:#A41E23;}
	.st3{fill:#FFFFFF;}
	.st4{fill:#0B293A;}
</style>
<g>
	<g>
		<g>
			<path class="st0" d="M12.07,5.25c-0.13,0-0.24-0.03-0.35-0.08l-0.41-0.6v-4.4L11.28,0H0.76C0.34,0,0,0.36,0,0.8v18.33
				c0,0.44,0.34,0.8,0.76,0.8h14.49l-3.04-3.48l-1.78,3.09L8.45,9.53l8.6,3.96V5.25H12.07z"/>
			<polygon class="st0" points="17.05,18.12 17.05,13.77 14.14,14.81 			"/>
		</g>
		<polygon class="st1" points="11.28,0 11.28,0 11.28,0 		"/>
		<polygon class="st2" points="11.73,5.18 17.05,10.28 17.05,5.25 		"/>
		<path class="st1" d="M11.28,0L11.28,0l-0.06,4.44c-0.01,0.45,0.38,0.81,0.85,0.81h4.98v0L11.28,0z"/>
	</g>
	<g>
		<path class="st3" d="M17.05,18.12l-2.91-3.31l2.91-1.04v-0.29l-8.6-3.96l1.98,10.01l1.78-3.09l3.04,3.48h1.06
			c0.41,0,0.75-0.33,0.75-0.75L17.05,18.12"/>
	</g>
</g>
<g>
	<path class="st4" d="M29.35,5.84V9.4h6.24v2.5h-6.24v4.91h-3.12V3.34h10.19v2.5H29.35z"/>
	<path class="st4" d="M38.41,10.08c0-4.01,3.12-6.97,7.38-6.97c4.24,0,7.38,2.95,7.38,6.97c0,4.02-3.14,6.97-7.38,6.97
		C41.53,17.05,38.41,14.08,38.41,10.08z M50,10.08c0-2.56-1.81-4.31-4.22-4.31c-2.41,0-4.22,1.75-4.22,4.31s1.81,4.31,4.22,4.31
		C48.19,14.39,50,12.64,50,10.08z"/>
	<path class="st4" d="M64.96,16.82l-2.6-3.75h-0.15h-2.72v3.75h-3.12V3.34h5.83c3.6,0,5.85,1.87,5.85,4.89
		c0,2.02-1.02,3.5-2.77,4.26l3.02,4.33H64.96z M62.03,5.88h-2.54v4.7h2.54c1.91,0,2.87-0.89,2.87-2.35
		C64.9,6.75,63.94,5.88,62.03,5.88z"/>
	<path class="st4" d="M83.65,16.82l-0.02-8.09l-3.97,6.66h-1.41L74.31,8.9v7.91h-2.93V3.34h2.58l5.05,8.38l4.97-8.38h2.56
		l0.04,13.48H83.65z"/>
	<path class="st4" d="M89.58,15.49l1.06-2.35c1.14,0.83,2.83,1.41,4.45,1.41c1.85,0,2.6-0.62,2.6-1.44c0-2.52-7.84-0.79-7.84-5.8
		c0-2.29,1.85-4.2,5.68-4.2c1.69,0,3.43,0.4,4.68,1.19l-0.96,2.37c-1.25-0.71-2.54-1.06-3.74-1.06c-1.85,0-2.56,0.69-2.56,1.54
		c0,2.48,7.84,0.77,7.84,5.72c0,2.25-1.87,4.18-5.72,4.18C92.93,17.05,90.77,16.41,89.58,15.49z"/>
	<path class="st4" d="M103.23,15.08c0-1.12,0.83-1.85,1.87-1.85c1.04,0,1.87,0.73,1.87,1.85c0,1.1-0.83,1.89-1.87,1.89
		C104.05,16.97,103.23,16.18,103.23,15.08z"/>
	<path class="st4" d="M118.8,9.87h2.85v5.47c-1.48,1.12-3.52,1.71-5.45,1.71c-4.24,0-7.36-2.91-7.36-6.97s3.12-6.97,7.41-6.97
		c2.37,0,4.33,0.81,5.64,2.33l-2,1.85c-0.98-1.04-2.12-1.52-3.49-1.52c-2.62,0-4.41,1.75-4.41,4.31c0,2.52,1.79,4.31,4.37,4.31
		c0.85,0,1.64-0.15,2.43-0.58V9.87z"/>
	<path class="st4" d="M124.56,10.08c0-4.01,3.12-6.97,7.38-6.97c4.24,0,7.38,2.95,7.38,6.97c0,4.02-3.14,6.97-7.38,6.97
		C127.68,17.05,124.56,14.08,124.56,10.08z M136.15,10.08c0-2.56-1.81-4.31-4.22-4.31c-2.41,0-4.22,1.75-4.22,4.31
		s1.81,4.31,4.22,4.31C134.34,14.39,136.15,12.64,136.15,10.08z"/>
	<path class="st4" d="M155.03,3.34l-5.83,13.48h-3.08L140.3,3.34h3.37l4.1,9.63l4.16-9.63H155.03z"/>
</g>
</svg>
