<svg width="1268" height="357" viewBox="0 0 1268 357" fill="none" xmlns="http://www.w3.org/2000/svg">
<path d="M458.345 309.449H422.39L418.621 297.202H380.939L377.171 309.449H341.216L379.84 204.723H419.721L458.345 309.449ZM410.143 269.568L399.78 235.811L389.418 269.568H410.143ZM588.342 309.449H556.627V246.488L533.232 309.449H519.101L495.707 246.488V309.449H463.991V204.723H507.797L526.167 254.966L544.537 204.723H588.342V309.449ZM684.807 309.449H605.361V204.723H684.807V232.357H637.077V242.72H683.708V270.353H637.077V281.815H684.807V309.449ZM792.626 309.449H756.514L742.069 276.477H730.608V309.449H698.892V204.723H754.787C766.615 204.723 775.826 208.178 782.421 215.086C789.12 221.89 792.469 230.421 792.469 240.679C792.469 248.843 790.585 255.542 786.817 260.776C783.153 266.009 778.757 269.882 773.628 272.395L792.626 309.449ZM749.92 248.843C752.851 248.843 755.31 248.163 757.299 246.802C759.288 245.337 760.282 243.243 760.282 240.522C760.282 237.905 759.288 235.916 757.299 234.555C755.31 233.09 752.851 232.357 749.92 232.357H730.608V248.843H749.92ZM837.018 309.449H805.302V204.723H837.018V309.449ZM905.878 311.333C889.34 311.333 875.575 306.309 864.584 296.26C853.698 286.107 848.255 273.075 848.255 257.165C848.255 241.15 853.698 228.118 864.584 218.069C875.47 208.021 889.235 202.996 905.878 202.996C918.439 202.996 928.54 205.927 936.181 211.789C943.926 217.651 949.684 224.873 953.452 233.456L926.132 246.174C924.771 241.987 922.207 238.428 918.439 235.497C914.67 232.462 910.484 230.944 905.878 230.944C898.341 230.944 892.218 233.456 887.508 238.48C882.798 243.505 880.442 249.733 880.442 257.165C880.442 264.596 882.798 270.824 887.508 275.849C892.218 280.873 898.341 283.385 905.878 283.385C910.484 283.385 914.67 281.92 918.439 278.989C922.207 275.953 924.771 272.342 926.132 268.155L953.452 280.716C951.777 284.589 949.684 288.2 947.171 291.55C944.659 294.795 941.519 297.987 937.751 301.127C933.983 304.267 929.325 306.78 923.777 308.664C918.334 310.443 912.368 311.333 905.878 311.333ZM1069.21 309.449H1033.25L1029.49 297.202H991.804L988.035 309.449H952.08L990.705 204.723H1030.59L1069.21 309.449ZM1021.01 269.568L1010.64 235.811L1000.28 269.568H1021.01ZM1094.95 308.978C1094.12 309.815 1093.09 310.234 1091.89 310.234C1090.69 310.234 1089.67 309.815 1088.83 308.978C1087.99 308.14 1087.57 307.12 1087.57 305.916C1087.57 304.712 1087.99 303.692 1088.83 302.854C1089.67 302.017 1090.69 301.598 1091.89 301.598C1093.09 301.598 1094.12 302.017 1094.95 302.854C1095.79 303.692 1096.21 304.712 1096.21 305.916C1096.21 307.12 1095.79 308.14 1094.95 308.978ZM1131.89 310.469C1124.3 310.469 1117.91 307.957 1112.73 302.933C1107.55 297.856 1104.96 291.314 1104.96 283.307C1104.96 275.299 1107.55 268.783 1112.73 263.759C1117.91 258.735 1124.3 256.223 1131.89 256.223C1140.16 256.223 1146.93 259.494 1152.22 266.036L1147.04 269.254C1145.36 267.056 1143.17 265.303 1140.44 263.995C1137.77 262.686 1134.92 262.032 1131.89 262.032C1126.13 262.032 1121.31 264.047 1117.44 268.077C1113.62 272.054 1111.71 277.131 1111.71 283.307C1111.71 289.482 1113.62 294.585 1117.44 298.615C1121.31 302.645 1126.13 304.66 1131.89 304.66C1134.77 304.66 1137.43 304.11 1139.89 303.011C1142.41 301.86 1144.42 300.525 1145.94 299.008V288.331H1127.96V282.522H1152.45V301.441C1147.06 307.46 1140.21 310.469 1131.89 310.469ZM1186.91 310.391C1179.22 310.391 1172.96 307.826 1168.15 302.697C1163.33 297.568 1160.92 291.105 1160.92 283.307C1160.92 275.509 1163.33 269.045 1168.15 263.916C1172.96 258.787 1179.22 256.223 1186.91 256.223C1194.55 256.223 1200.78 258.787 1205.59 263.916C1210.46 269.045 1212.89 275.509 1212.89 283.307C1212.89 291.105 1210.46 297.568 1205.59 302.697C1200.78 307.826 1194.55 310.391 1186.91 310.391ZM1186.91 304.581C1192.67 304.581 1197.3 302.593 1200.81 298.615C1204.36 294.585 1206.14 289.482 1206.14 283.307C1206.14 277.079 1204.36 271.976 1200.81 267.998C1197.3 264.021 1192.67 262.032 1186.91 262.032C1181.1 262.032 1176.44 264.021 1172.94 267.998C1169.43 271.976 1167.68 277.079 1167.68 283.307C1167.68 289.482 1169.43 294.585 1172.94 298.615C1176.44 302.593 1181.1 304.581 1186.91 304.581ZM1245.25 309.449H1237.16L1216.12 257.086H1223.58L1241.24 302.305L1258.91 257.086H1266.37L1245.25 309.449Z" fill="#112E4F"/>
<path d="M458.816 165H445.784V78.8019L410.143 165H404.805L369.321 78.8019V165H356.289V60.2748H374.973L407.474 139.093L440.132 60.2748H458.816V165ZM572.898 165H557.982L548.718 141.763H496.591L487.328 165H472.412L514.49 60.2748H530.662L572.898 165ZM544.793 130.144L522.655 73.7776L500.36 130.144H544.793ZM622.388 165H586.59V60.2748H622.388C638.403 60.2748 651.33 65.2467 661.169 75.1906C671.113 85.1346 676.085 97.643 676.085 112.716C676.085 127.893 671.113 140.402 661.169 150.241C651.33 160.08 638.403 165 622.388 165ZM622.388 153.381C634.739 153.381 644.526 149.508 651.748 141.763C658.971 134.017 662.582 124.335 662.582 112.716C662.582 100.993 659.023 91.2579 651.905 83.5121C644.788 75.7663 634.948 71.8934 622.388 71.8934H599.621V153.381H622.388ZM765.14 165H696.527V60.2748H765.14V71.8934H709.559V105.65H764.041V117.269H709.559V153.381H765.14V165ZM839.429 165H826.397V60.2748H839.429V165ZM950.632 165H938.071L876.994 81.471V165H863.963V60.2748H877.308L937.6 142.077V60.2748H950.632V165Z" fill="#112E4F"/>
<path d="M60.8671 74.2527C62.689 68.325 67.3292 63.6848 73.257 61.8628L150.584 38.0953C157.208 36.0594 164.415 37.8505 169.315 42.7506L309.133 182.569C316.442 189.877 316.442 201.727 309.133 209.035L208.039 310.129C200.731 317.437 188.882 317.437 181.573 310.129L41.7549 170.311C36.8548 165.41 35.0636 158.204 37.0996 151.58L60.8671 74.2527Z" fill="#112E4F"/>
<path d="M79.0395 82.9602C78.1107 81.1372 80.0573 79.1906 81.8803 80.1195L97.9408 88.3027C98.7561 88.7181 99.7461 88.5613 100.393 87.9143L113.139 75.1686C114.586 73.7218 117.038 74.9716 116.718 76.9925L113.899 94.7957C113.756 95.6994 114.211 96.5926 115.026 97.008L131.086 105.191C132.909 106.12 132.479 108.839 130.458 109.159L112.655 111.979C111.751 112.122 111.042 112.831 110.899 113.735L108.079 131.538C107.759 133.559 105.04 133.989 104.111 132.166L95.9281 116.106C95.5127 115.291 94.6195 114.835 93.7158 114.979L75.9125 117.798C73.8917 118.118 72.6419 115.666 74.0887 114.219L86.8344 101.473C87.4814 100.826 87.6382 99.836 87.2228 99.0207L79.0395 82.9602Z" fill="white"/>
<path d="M72.4228 150.448C71.4939 148.625 73.4405 146.678 75.2635 147.607L84.4591 152.292C85.2744 152.708 86.2645 152.551 86.9115 151.904L94.2091 144.606C95.6559 143.159 98.1088 144.409 97.7887 146.43L96.1742 156.623C96.0311 157.527 96.4861 158.42 97.3014 158.836L106.497 163.521C108.32 164.45 107.889 167.169 105.869 167.489L95.6752 169.104C94.7714 169.247 94.0626 169.955 93.9195 170.859L92.305 181.053C91.9849 183.073 89.2659 183.504 88.337 181.681L83.6517 172.485C83.2362 171.67 82.3431 171.215 81.4394 171.358L71.246 172.973C69.2251 173.293 67.9753 170.84 69.4221 169.393L76.7198 162.096C77.3668 161.448 77.5236 160.458 77.1082 159.643L72.4228 150.448Z" fill="white"/>
<path d="M146.527 76.3441C145.598 74.521 147.545 72.5744 149.368 73.5033L158.564 78.1887C159.379 78.6041 160.369 78.4473 161.016 77.8003L168.314 70.5026C169.76 69.0559 172.213 70.3057 171.893 72.3265L170.279 82.5199C170.136 83.4236 170.591 84.3168 171.406 84.7322L180.602 89.4176C182.425 90.3464 181.994 93.0655 179.973 93.3855L169.78 95C168.876 95.1431 168.167 95.8519 168.024 96.7557L166.409 106.949C166.089 108.97 163.37 109.401 162.442 107.578L157.756 98.3819C157.341 97.5667 156.448 97.1116 155.544 97.2547L145.35 98.8692C143.33 99.1893 142.08 96.7364 143.527 95.2896L150.824 87.992C151.471 87.345 151.628 86.3549 151.213 85.5397L146.527 76.3441Z" fill="white"/>
<path d="M85.1309 213.687L212.607 86.2105L309.206 182.81C316.515 190.118 316.515 201.967 309.206 209.276L208.196 310.286C200.888 317.594 189.039 317.594 181.73 310.286L85.1309 213.687Z" fill="white"/>
<path d="M85.1309 213.687L110.273 188.544L220.105 298.376L208.196 310.286C200.888 317.594 189.039 317.594 181.73 310.286L85.1309 213.687Z" fill="#CC202A"/>
<rect x="135.856" y="162.961" width="36.1804" height="155.326" transform="rotate(-45 135.856 162.961)" fill="#CC202A"/>
<path d="M187.023 111.794L212.607 86.2105L309.206 182.81C316.515 190.118 316.515 201.967 309.206 209.276L296.856 221.626L187.023 111.794Z" fill="#CC202A"/>
<rect x="110.273" y="188.544" width="36.1804" height="155.326" transform="rotate(-45 110.273 188.544)" fill="white"/>
<path d="M161.439 137.377L187.023 111.794L296.855 221.626L271.272 247.21L161.439 137.377Z" fill="white"/>
</svg>
